HIERARCHY
ROOT Hips
{
  OFFSET 0.190252 16.352 0.0151073
  CHANNELS 6 Xposition Yposition Zposition Zrotation Xrotation Yrotation
  JOINT LHipJoint
  {
    OFFSET 0 0 0
    CHANNELS 6 Xposition Yposition Zposition Zrotation Xrotation Yrotation
    JOINT LeftUpLeg
    {
      OFFSET 1.36306 -1.79463 0.83929
      CHANNELS 6 Xposition Yposition Zposition Zrotation Xrotation Yrotation
      JOINT LeftLeg
      {
        OFFSET 2.44811 -6.72613 0
        CHANNELS 6 Xposition Yposition Zposition Zrotation Xrotation Yrotation
        JOINT LeftFoot
        {
          OFFSET 2.5622 -7.03959 0
          CHANNELS 6 Xposition Yposition Zposition Zrotation Xrotation Yrotation
          JOINT LeftToeBase
          {
            OFFSET 0.15764 -0.43311 2.32255
            CHANNELS 6 Xposition Yposition Zposition Zrotation Xrotation Yrotation
            End Site
            {
              OFFSET 0 0 0
            }
          }
        }
      }
    }
  }
  JOINT RHipJoint
  {
    OFFSET 0 0 0
    CHANNELS 6 Xposition Yposition Zposition Zrotation Xrotation Yrotation
    JOINT RightUpLeg
    {
      OFFSET -1.30552 -1.79463 0.83929
      CHANNELS 6 Xposition Yposition Zposition Zrotation Xrotation Yrotation
      JOINT RightLeg
      {
        OFFSET -2.54253 -6.98555 0
        CHANNELS 6 Xposition Yposition Zposition Zrotation Xrotation Yrotation
        JOINT RightFoot
        {
          OFFSET -2.56826 -7.05623 0
          CHANNELS 6 Xposition Yposition Zposition Zrotation Xrotation Yrotation
          JOINT RightToeBase
          {
            OFFSET -0.16473 -0.45259 2.36315
            CHANNELS 6 Xposition Yposition Zposition Zrotation Xrotation Yrotation
            End Site
            {
              OFFSET 0 0 0
            }
          }
        }
      }
    }
  }
  JOINT LowerBack
  {
    OFFSET 0 0 0
    CHANNELS 6 Xposition Yposition Zposition Zrotation Xrotation Yrotation
    JOINT Spine
    {
      OFFSET 0.02827 2.03559 -0.19338
      CHANNELS 6 Xposition Yposition Zposition Zrotation Xrotation Yrotation
      JOINT Spine1
      {
        OFFSET 0.05672 2.04885 -0.04275
        CHANNELS 6 Xposition Yposition Zposition Zrotation Xrotation Yrotation
        JOINT Neck
        {
          OFFSET 0 0 0
          CHANNELS 6 Xposition Yposition Zposition Zrotation Xrotation Yrotation
          JOINT Neck1
          {
            OFFSET -0.05417 1.74624 0.17202
            CHANNELS 6 Xposition Yposition Zposition Zrotation Xrotation Yrotation
            JOINT Head
            {
              OFFSET 0.10407 1.76136 -0.12397
              CHANNELS 6 Xposition Yposition Zposition Zrotation Xrotation Yrotation
              End Site
              {
                OFFSET 0 0 0
              }
            }
          }
        }
        JOINT LeftShoulder
        {
          OFFSET 0 0 0
          CHANNELS 6 Xposition Yposition Zposition Zrotation Xrotation Yrotation
          JOINT LeftArm
          {
            OFFSET 3.36241 1.20089 -0.31121
            CHANNELS 6 Xposition Yposition Zposition Zrotation Xrotation Yrotation
            JOINT LeftForeArm
            {
              OFFSET 4.983 0 0
              CHANNELS 6 Xposition Yposition Zposition Zrotation Xrotation Yrotation
              JOINT LeftHand
              {
                OFFSET 3.48356 0 0
                CHANNELS 6 Xposition Yposition Zposition Zrotation Xrotation Yrotation
                JOINT LeftFingerBase
                {
                  OFFSET 0 0 0
                  CHANNELS 6 Xposition Yposition Zposition Zrotation Xrotation Yrotation
                  JOINT LeftHandIndex1
                  {
                    OFFSET 0.71526 0 0
                    CHANNELS 6 Xposition Yposition Zposition Zrotation Xrotation Yrotation
                    End Site
                    {
                      OFFSET 0 0 0
                    }
                  }
                }
                JOINT LThumb
                {
                  OFFSET 0 0 0
                  CHANNELS 6 Xposition Yposition Zposition Zrotation Xrotation Yrotation
                  End Site
                  {
                    OFFSET 0 0 0
                  }
                }
              }
            }
          }
        }
        JOINT RightShoulder
        {
          OFFSET 0 0 0
          CHANNELS 6 Xposition Yposition Zposition Zrotation Xrotation Yrotation
          JOINT RightArm
          {
            OFFSET -3.1366 1.37405 -0.40465
            CHANNELS 6 Xposition Yposition Zposition Zrotation Xrotation Yrotation
            JOINT RightForeArm
            {
              OFFSET -5.2419 0 0
              CHANNELS 6 Xposition Yposition Zposition Zrotation Xrotation Yrotation
              JOINT RightHand
              {
                OFFSET -3.44417 0 0
                CHANNELS 6 Xposition Yposition Zposition Zrotation Xrotation Yrotation
                JOINT RightFingerBase
                {
                  OFFSET 0 0 0
                  CHANNELS 6 Xposition Yposition Zposition Zrotation Xrotation Yrotation
                  JOINT RightHandIndex1
                  {
                    OFFSET -0.62253 0 0
                    CHANNELS 6 Xposition Yposition Zposition Zrotation Xrotation Yrotation
                    End Site
                    {
                      OFFSET 0 0 0
                    }
                  }
                }
                JOINT RThumb
                {
                  OFFSET 0 0 0
                  CHANNELS 6 Xposition Yposition Zposition Zrotation Xrotation Yrotation
                  End Site
                  {
                    OFFSET 0 0 0
                  }
                }
              }
            }
          }
        }
      }
    }
  }
}
MOTION
Frames:	4
Frame Time:	0.00833333
0.194662 16.3932 172.692 -0.0263071 8.39959 -1.11521 0 0 0 -0.299681 5.35791 18.0368 1.36306 -1.79463 0.83929 -13.6725 -44.1407 -16.3339 2.44811 -6.72613 0 -17.3652 41.139 71.0218 2.5622 -7.03959 1.42109e-014 -1.41896 -2.24889 -5.53514 0.15764 -0.43311 2.32255 -0.00883645 -0.147444 -0.0420035 0 0 0 -8.85582 0.425549 -20.6242 -1.30552 -1.79463 0.83929 48.7334 -21.8495 34.6047 -2.54253 -6.98555 0 -2.93791 47.8902 -26.1738 -2.56826 -7.05623 0 5.57554 -2.11014 6.85127 -0.16473 -0.45259 2.36315 -0.00150763 -0.015739 0.00510051 0 0 0 -1.93281 -2.12354 0.12108 0.02827 2.03559 -0.19338 6.97016 32.7417 2.55033 0.05672 2.04885 -0.04275 3.73288 9.11637 3.28312 0 0 0 -1.03862 -9.99446 -0.013758 -0.05417 1.74624 0.17202 2.39568 26.8281 -1.25317 0.10407 1.76136 -0.12397 0.403843 0.511144 0.024468 0 0 0 1.49159 -0.646905 33.9574 3.36241 1.20089 -0.31121 -74.7132 10.5204 -4.38247 4.983 1.77636e-015 0 -44.3429 11.2869 -41.9547 3.48356 0 0 0.943465 -0.222958 -0.34896 0 0 0 -0.121017 -1.53997e-006 -1.14815 0.71526 1.42109e-014 -2.84217e-014 -0 -3.18055e-015 -0 0 0 0 -8.82781e-032 -3.18055e-015 -1.59028e-015 0 0 0 -14.2286 -3.8478 -21.6126 -3.1366 1.37405 -0.40465 54.4506 16.1485 43.7433 -5.2419 0 0 6.96634 23.0658 65.3195 -3.44417 0 7.10543e-015 -0.716338 0.155157 3.02915 0 0 0 0.388198 2.45089e-006 2.4941 -0.62253 0 0 -5.1334e-007 -4.00714e-007 5.52029e-007 0 0 0 -3.18055e-015 4.77083e-015 -4.77083e-015 
0.203196 16.4191 172.832 -0.00213792 8.22418 -0.937583 0 0 0 -0.299681 5.35791 18.0368 1.36306 -1.79463 0.83929 -13.5236 -44.029 -16.1597 2.44811 -6.72613 -2.84217e-014 -17.2522 40.4412 69.9775 2.5622 -7.03959 1.42109e-014 -1.55652 -1.76093 -5.35828 0.15764 -0.43311 2.32255 -0.0101099 -0.170128 -0.0484873 0 0 0 -8.85582 0.425549 -20.6242 -1.30552 -1.79463 0.83929 48.2838 -21.412 34.0584 -2.54253 -6.98555 2.84217e-014 -3.03681 47.6139 -26.103 -2.56826 -7.05623 -2.84217e-014 5.61368 -2.34645 6.95025 -0.16473 -0.45259 2.36315 -0.00348764 -0.0366203 0.0118721 0 0 0 -1.93281 -2.12354 0.12108 0.02827 2.03559 -0.19338 7.00594 32.5217 2.61763 0.05672 2.04885 -0.04275 3.59277 9.05885 3.34345 0 0 0 -1.06844 -10.052 -0.0120833 -0.05417 1.74624 0.17202 2.3617 26.7709 -1.24282 0.10407 1.76136 -0.12397 0.760012 0.931779 0.00752688 0 0 0 1.57694 -0.788147 33.989 3.36241 1.20089 -0.31121 -73.7931 11.6974 -4.06829 4.983 -1.77636e-015 0 -45.0257 11.2264 -42.0193 3.48356 0 2.84217e-014 1.04499 -0.204692 -0.420979 0 0 0 -0.121017 -1.53997e-006 -1.14815 0.71526 0 0 -7.95139e-016 -3.18055e-015 -3.18055e-015 0 0 0 0 3.18055e-015 -0 0 0 0 -14.4238 -3.95169 -21.6965 -3.1366 1.37405 -0.40465 53.8452 16.4063 43.185 -5.2419 0 0 7.11127 23.271 65.2154 -3.44417 0 0 -1.30583 0.281035 3.4012 0 0 0 0.388198 2.45089e-006 2.4941 -0.62253 2.84217e-014 -1.42109e-014 -5.1334e-007 -4.00714e-007 5.52029e-007 0 0 0 3.18055e-015 1.59028e-015 -3.18055e-015 
0.215645 16.4446 172.986 0.0486829 8.01356 -0.732276 0 0 0 -0.299681 5.35791 18.0368 1.36306 -1.79463 0.83929 -13.3126 -43.9028 -15.8163 2.44811 -6.72613 0 -17.1994 39.8191 68.7112 2.5622 -7.03959 1.42109e-014 -1.77652 -1.09615 -5.11468 0.15764 -0.43311 2.32255 -0.00670283 -0.115287 -0.0328798 0 0 0 -8.85582 0.425549 -20.6242 -1.30552 -1.79463 0.83929 47.7231 -20.9426 33.4218 -2.54253 -6.98555 2.84217e-014 -3.14985 47.3239 -25.9937 -2.56826 -7.05623 2.84217e-014 5.67674 -2.61834 7.06795 -0.16473 -0.45259 2.36315 -0.00797991 -0.0824197 0.0266662 0 0 0 -1.93281 -2.12354 0.12108 0.02827 2.03559 -0.19338 7.02493 32.2732 2.68391 0.05672 2.04885 -0.04275 3.45401 8.98951 3.40014 0 0 0 -1.1068 -10.1056 -0.0152414 -0.05417 1.74624 0.17202 2.3211 26.7176 -1.23642 0.10407 1.76136 -0.12397 1.18251 1.44101 -0.0486582 0 0 0 1.74636 -0.946769 34.0094 3.36241 1.20089 -0.31121 -72.6582 12.9927 -3.7211 4.983 0 0 -45.6122 11.3043 -42.0403 3.48356 1.42109e-014 2.84217e-014 1.19168 -0.204134 -0.410023 0 0 0 -0.121017 -1.53997e-006 -1.14815 0.71526 -1.42109e-014 2.84217e-014 0 3.18055e-015 -0 0 0 0 7.95139e-016 -6.36111e-015 -0 0 0 0 -14.5849 -4.0586 -21.7787 -3.1366 1.37405 -0.40465 53.1751 16.758 42.4996 -5.2419 0 0 7.32115 23.5307 65.0556 -3.44417 0 0 -2.27275 0.399169 3.70193 0 0 0 0.388198 2.45089e-006 2.4941 -0.62253 2.84217e-014 0 -5.1334e-007 -4.00714e-007 5.52029e-007 0 0 0 -3.18055e-015 3.18055e-015 1.59028e-015 
0.2319 16.4845 173.162 0.116313 7.66782 -0.420212 0 0 0 -0.299681 5.35791 18.0368 1.36306 -1.79463 0.83929 -13.1238 -43.4389 -15.3871 2.44811 -6.72613 -2.84217e-014 -16.872 38.8199 67.1877 2.5622 -7.03959 -1.42109e-014 -1.99699 -0.23586 -4.78865 0.15764 -0.43311 2.32255 -0.00167047 -0.0301598 -0.00861017 0 0 0 -8.85582 0.425549 -20.6242 -1.30552 -1.79463 0.83929 46.8126 -20.1597 32.4875 -2.54253 -6.98555 0 -3.3971 46.7702 -25.7554 -2.56826 -7.05623 0 5.84242 -2.9311 7.21358 -0.16473 -0.45259 2.36315 -0.017085 -0.174094 0.0562147 0 0 0 -1.93281 -2.12354 0.12108 0.02827 2.03559 -0.19338 7.03895 31.9082 2.77256 0.05672 2.04885 -0.04275 3.26278 8.8821 3.47448 0 0 0 -1.16383 -10.1675 -0.0162726 -0.05417 1.74624 0.17202 2.25925 26.6559 -1.22366 0.10407 1.76136 -0.12397 1.7842 2.21863 -0.142226 0 0 0 2.11958 -1.16026 34.0351 3.36241 1.20089 -0.31121 -70.9203 14.8973 -3.49815 4.983 3.55271e-015 1.42109e-014 -46.5593 11.6323 -42.3683 3.48356 -1.42109e-014 0 1.36204 -0.203184 -0.399193 0 0 0 -0.121017 -1.53997e-006 -1.14815 0.71526 0 0 3.97252e-031 9.54166e-015 -2.38542e-015 0 0 0 -0 -6.36111e-015 -0 0 0 0 -14.8796 -4.24157 -21.9333 -3.1366 1.37405 -0.40465 52.2644 17.2415 41.6606 -5.2419 0 2.84217e-014 7.53973 23.9504 64.9767 -3.44417 -2.84217e-014 7.10543e-015 -3.48423 0.516081 4.02814 0 0 0 0.388198 2.45089e-006 2.4941 -0.62253 2.84217e-014 0 -5.1334e-007 -4.00714e-007 5.52029e-007 0 0 0 -2.64834e-031 4.77083e-015 3.18055e-015 
